<svg width="90" height="90" viewBox="0 0 90 90" fill="none" xmlns="http://www.w3.org/2000/svg">
<mask id="mask0_900_3617" style="mask-type:luminance" maskUnits="userSpaceOnUse" x="0" y="0" width="90" height="90">
<path d="M89.4761 0H0V89.4761H89.4761V0Z" fill="white"/>
</mask>
<g mask="url(#mask0_900_3617)">
<mask id="mask1_900_3617" style="mask-type:luminance" maskUnits="userSpaceOnUse" x="0" y="0" width="90" height="90">
<path d="M89.4761 0.00537109H0V89.4814H89.4761V0.00537109Z" fill="white"/>
</mask>
<g mask="url(#mask1_900_3617)">
<g clip-path="url(#clip0_900_3617)">
<path d="M59.1465 33.7369C59.1465 35.0791 58.7438 36.3765 58.028 37.4949C57.7596 37.8976 57.4464 38.2555 57.1333 38.5686L46.4856 49.2163C45.6803 50.0216 44.3382 50.0216 43.5329 49.2163L32.8853 38.5686C32.5721 38.2555 32.2589 37.8976 31.9905 37.4949C29.9326 34.3633 30.7826 30.1579 33.9142 28.0552C36.2406 26.5341 39.2381 26.5341 41.5197 28.0999L43.8461 29.6658C44.5619 30.1579 45.5014 30.1579 46.2172 29.6658L48.2304 28.2789C50.9594 26.3999 55.2095 26.6683 57.4464 29.1289C58.5202 30.4263 59.1465 32.0369 59.1465 33.7369Z" fill="#FC2B2B"/>
<path d="M44.7405 0.00439453C20.0451 0.00439453 0.00245667 20.047 0.00245667 44.7424C0.00245667 69.4378 20.0451 89.4805 44.7405 89.4805C69.4359 89.4805 89.4785 69.4378 89.4785 44.7424C89.4338 20.047 69.4359 0.0491326 44.7405 0.00439453ZM47.6485 6.75984C68.5859 8.37041 84.2889 26.6235 82.7231 47.5609C82.231 54.1374 80.0835 60.4007 76.4597 65.814C75.6992 66.9772 74.4913 67.7825 73.1044 68.0062C71.1359 68.4088 69.1227 68.6773 67.0648 68.8562C63.9778 69.1246 60.8909 68.901 57.8935 68.1852C55.1644 67.5588 52.7039 66.0825 50.8696 63.9798C49.1695 61.9218 48.23 59.327 48.1853 56.6427V55.748C48.1853 55.1216 48.409 54.5401 48.8564 54.0927L59.2803 43.7134C59.9067 43.0871 60.4435 42.416 60.8909 41.7002C64.2463 36.6001 63.5752 29.8447 59.2803 25.5498C55.5671 21.8366 49.9301 20.7628 45.1431 22.8655C44.9642 22.955 44.7405 22.955 44.5168 22.8655C37.985 20.0918 30.4243 23.134 27.6506 29.6657C25.9505 33.6027 26.3532 38.1659 28.7243 41.745C29.2164 42.4608 29.7532 43.1319 30.3796 43.7582L40.7588 54.0927C41.2062 54.5401 41.4299 55.1216 41.4299 55.748V56.8664C41.3404 59.506 40.4009 62.0113 38.7456 64.0245C36.9113 66.0825 34.4507 67.5588 31.7665 68.1852C28.769 68.901 25.6821 69.1246 22.5952 68.8562C20.4925 68.6773 18.4345 68.4088 16.3766 68.0062C14.9897 67.7378 13.7818 66.9325 13.0212 65.7693C1.38934 48.232 6.22104 24.6103 23.7136 12.9784C30.7822 8.32567 39.193 6.1335 47.6485 6.75984ZM46.3511 47.0688L45.6352 47.7846C45.1879 48.232 44.4273 48.232 43.9799 47.7846L35.1665 38.9265C32.7954 36.5554 32.7954 32.6632 35.1665 30.292C36.3297 29.1736 37.8508 28.5025 39.4614 28.5025C40.6693 28.5025 41.8773 28.8604 42.9062 29.5762L44.1589 30.4263C44.5615 30.6947 45.0984 30.6947 45.501 30.4263L46.7537 29.5762C49.5722 27.6972 53.3302 28.413 55.2092 31.2315C56.8198 33.6474 56.5513 36.8685 54.4934 38.9265L46.3511 47.0688ZM23.982 76.6406C23.7584 76.4617 23.6689 76.1485 23.8478 75.9248C23.9373 75.7906 24.1163 75.7011 24.2952 75.7011C25.4137 75.7459 26.5768 75.7011 27.74 75.6117C29.6638 75.5222 31.5875 75.209 33.5112 74.7169C35.4797 74.18 37.3587 73.4195 39.1035 72.3905C40.9378 71.3168 42.5483 69.9747 43.9352 68.3641C44.3378 67.872 45.0984 67.8272 45.5905 68.2299C45.6352 68.2746 45.68 68.3194 45.7247 68.3641C47.1116 69.9747 48.7222 71.3168 50.5564 72.3905C52.346 73.4195 54.2249 74.18 56.1934 74.7169C58.0724 75.209 59.9962 75.5222 61.9646 75.6117C63.0383 75.7011 64.1568 75.7011 65.2305 75.7011C65.5437 75.7011 65.7674 75.9248 65.7674 76.238C65.7674 76.4169 65.6779 76.5959 65.5437 76.6854C52.8828 84.8724 36.5982 84.8724 23.982 76.6406Z" fill="#1B76FF"/>
</g>
</g>
</g>
<defs>
<clipPath id="clip0_900_3617">
<rect width="89.4761" height="89.4761" fill="white" transform="matrix(-1 0 0 1 89.4785 0.00439453)"/>
</clipPath>
</defs>
</svg>
